<svg xmlns="http://www.w3.org/2000/svg" width="400" height="300" viewBox="0 0 400 300">
  <defs>
    <linearGradient id="polyBg" x1="0%" y1="0%" x2="100%" y2="100%">
      <stop offset="0%" style="stop-color:#4ECDC4"/>
      <stop offset="100%" style="stop-color:#556270"/>
    </linearGradient>
  </defs>
  <rect width="400" height="300" fill="url(#polyBg)"/>
  <polygon points="0,0 150,0 100,80" fill="#FF6B6B" opacity="0.8"/>
  <polygon points="150,0 300,0 200,100" fill="#C44D58" opacity="0.7"/>
  <polygon points="300,0 400,0 400,120 280,80" fill="#4ECDC4" opacity="0.6"/>
  <polygon points="0,0 100,80 50,150 0,100" fill="#556270" opacity="0.7"/>
  <polygon points="100,80 200,100 150,180 80,140" fill="#45B7AF" opacity="0.8"/>
  <polygon points="200,100 280,80 320,180 200,200" fill="#FF6B6B" opacity="0.6"/>
  <polygon points="0,100 50,150 30,220 0,180" fill="#C44D58" opacity="0.5"/>
  <polygon points="50,150 150,180 100,260 30,220" fill="#4ECDC4" opacity="0.7"/>
  <polygon points="150,180 200,200 180,280 100,260" fill="#556270" opacity="0.6"/>
  <polygon points="200,200 320,180 350,280 180,280" fill="#45B7AF" opacity="0.7"/>
  <polygon points="320,180 400,120 400,300 350,280" fill="#C44D58" opacity="0.5"/>
  <polygon points="0,180 30,220 0,300" fill="#FF6B6B" opacity="0.6"/>
  <polygon points="30,220 100,260 50,300 0,300" fill="#45B7AF" opacity="0.5"/>
  <polygon points="100,260 180,280 150,300 50,300" fill="#556270" opacity="0.7"/>
  <polygon points="180,280 350,280 300,300 150,300" fill="#4ECDC4" opacity="0.6"/>
  <polygon points="350,280 400,300 300,300" fill="#FF6B6B" opacity="0.5"/>
  <text x="200" y="140" text-anchor="middle" font-family="Arial, sans-serif" font-size="32" fill="white" font-weight="bold">Low Poly</text>
  <text x="200" y="180" text-anchor="middle" font-family="Arial, sans-serif" font-size="16" fill="white" opacity="0.8">Placeholder Image</text>
</svg>
