<svg xmlns="http://www.w3.org/2000/svg" width="400" height="300" viewBox="0 0 400 300">
  <rect width="400" height="300" fill="#2C2137"/>
  <!-- Pixel grid pattern -->
  <g fill="#4B3B5A">
    <rect x="0" y="0" width="20" height="20"/>
    <rect x="40" y="0" width="20" height="20"/>
    <rect x="80" y="0" width="20" height="20"/>
    <rect x="120" y="0" width="20" height="20"/>
    <rect x="160" y="0" width="20" height="20"/>
    <rect x="200" y="0" width="20" height="20"/>
    <rect x="240" y="0" width="20" height="20"/>
    <rect x="280" y="0" width="20" height="20"/>
    <rect x="320" y="0" width="20" height="20"/>
    <rect x="360" y="0" width="20" height="20"/>
    <rect x="20" y="20" width="20" height="20"/>
    <rect x="60" y="20" width="20" height="20"/>
    <rect x="100" y="20" width="20" height="20"/>
    <rect x="140" y="20" width="20" height="20"/>
    <rect x="180" y="20" width="20" height="20"/>
    <rect x="220" y="20" width="20" height="20"/>
    <rect x="260" y="20" width="20" height="20"/>
    <rect x="300" y="20" width="20" height="20"/>
    <rect x="340" y="20" width="20" height="20"/>
    <rect x="380" y="20" width="20" height="20"/>
  </g>
  <!-- Simple pixel character -->
  <g fill="#7EC8E3">
    <rect x="180" y="80" width="20" height="20"/>
    <rect x="200" y="80" width="20" height="20"/>
    <rect x="160" y="100" width="20" height="20"/>
    <rect x="180" y="100" width="20" height="20"/>
    <rect x="200" y="100" width="20" height="20"/>
    <rect x="220" y="100" width="20" height="20"/>
    <rect x="180" y="120" width="20" height="20"/>
    <rect x="200" y="120" width="20" height="20"/>
  </g>
  <g fill="#FF6B6B">
    <rect x="160" y="120" width="20" height="20"/>
    <rect x="220" y="120" width="20" height="20"/>
  </g>
  <text x="200" y="200" text-anchor="middle" font-family="monospace" font-size="28" fill="#7EC8E3" font-weight="bold">Pixel Art</text>
  <text x="200" y="230" text-anchor="middle" font-family="monospace" font-size="14" fill="#7EC8E3" opacity="0.8">Placeholder Image</text>
</svg>
